<?xml version="1.0" encoding="UTF-8"?>
<svg xmlns="http://www.w3.org/2000/svg"
     xmlns:xlink="http://www.w3.org/1999/xlink"
     version="1.2"
     width="250mm" height="250mm" viewBox="0 0 250 250"
     stroke="none"
     fill="#000000"
     stroke-width="0.3"
     font-size="3.88"
>
<defs>
  <marker id="arrow" markerWidth="15" markerHeight="7" refX="5" refY="3.5" orient="auto" markerUnits="strokeWidth">
    <path d="M0,0 L15,3.5 L0,7 z" stroke="context-stroke" fill="context-stroke"/>
  </marker>
</defs>
<g fill="#000000" id="img-0599ac53-1">
  <g transform="translate(125,125)">
    <path d="M-125,-125 L125,-125 125,125 -125,125  z" class="primitive"/>
  </g>
  <g fill="#000000" fill-opacity="0.000" id="img-0599ac53-2">
    <g transform="translate(125,125)">
      <path d="M-125,-125 L125,-125 125,125 -125,125  z" class="primitive"/>
    </g>
  </g>
  <g stroke-width="1.5" stroke="#0000FF" id="img-0599ac53-3">
  </g>
  <g stroke-width="1.5" stroke="#0000FF" id="img-0599ac53-4">
    <g transform="translate(167.57,63.95)">
      <path fill="none" d="M-43.78,-34.99 L43.78,34.99 " class="primitive"/>
    </g>
    <g transform="translate(70.28,75.01)">
      <path fill="none" d="M35.2,-44 L-35.2,44 " class="primitive"/>
    </g>
    <g transform="translate(185.84,167.35)">
      <path fill="none" d="M35.2,-44 L-35.2,44 " class="primitive"/>
    </g>
    <g transform="translate(74.79,179.94)">
      <path fill="none" d="M-43.78,-34.99 L43.78,34.99 " class="primitive"/>
    </g>
  </g>
  <g fill="#0000FF" id="img-0599ac53-5">
  </g>
  <g fill="#0000FF" id="img-0599ac53-6">
    <g transform="translate(213.9,100.98)">
      <path d="M-0.32,-4.82 L5.1,4.07 -4.77,0.75  z" class="primitive"/>
    </g>
    <g transform="translate(33.04,121.56)">
      <path d="M4.82,-0.32 L-4.08,5.1 -0.74,-4.77  z" class="primitive"/>
    </g>
    <g transform="translate(148.6,213.9)">
      <path d="M4.82,-0.32 L-4.08,5.1 -0.74,-4.77  z" class="primitive"/>
    </g>
    <g transform="translate(121.12,216.96)">
      <path d="M-0.32,-4.82 L5.1,4.07 -4.77,0.75  z" class="primitive"/>
    </g>
  </g>
  <g font-size="4" fill="#000000" id="img-0599ac53-7">
  </g>
  <g stroke-width="0" stroke="#000000" stroke-opacity="0.000" fill="#00008B" id="img-0599ac53-8">
    <g transform="translate(113.61,20.83)">
      <circle cx="0" cy="0" r="12.5" class="primitive"/>
    </g>
    <g transform="translate(229.17,113.18)">
      <circle cx="0" cy="0" r="12.5" class="primitive"/>
    </g>
    <g transform="translate(20.83,136.82)">
      <circle cx="0" cy="0" r="12.5" class="primitive"/>
    </g>
    <g transform="translate(136.39,229.17)">
      <circle cx="0" cy="0" r="12.5" class="primitive"/>
    </g>
  </g>
  <g font-family="Helvetica" font-size="4" fill="#A9A9A9" id="img-0599ac53-9">
    <g transform="translate(113.61,20.83)">
      <g class="primitive">
        <text text-anchor="middle" dy="0.35em">Target Profiler</text>
      </g>
    </g>
    <g transform="translate(229.17,113.18)">
      <g class="primitive">
        <text text-anchor="middle" dy="0.35em">AlphaFold-Consultant</text>
      </g>
    </g>
    <g transform="translate(20.83,136.82)">
      <g class="primitive">
        <text text-anchor="middle" dy="0.35em">PubMed-Miner</text>
      </g>
    </g>
    <g transform="translate(136.39,229.17)">
      <g class="primitive">
        <text text-anchor="middle" dy="0.35em">Design-Coordinator</text>
      </g>
    </g>
  </g>
  <g font-family="Helvetica" font-size="4" fill="#000000" id="img-0599ac53-10">
    <g transform="translate(125,0)">
      <g class="primitive">
        <text text-anchor="middle" dy="0.35em"></text>
      </g>
    </g>
  </g>
</g>
</svg>
